<?xml version="1.0" encoding="utf-8"?>
<!-- Generator: Adobe Illustrator 21.0.0, SVG Export Plug-In . SVG Version: 6.00 Build 0)  -->
<svg version="1.1" id="Layer_1" xmlns="http://www.w3.org/2000/svg" xmlns:xlink="http://www.w3.org/1999/xlink" x="0px" y="0px"
	 viewBox="0 0 30 30" enable-background="new 0 0 30 30" xml:space="preserve">
<path id="twitter" fill="#FFFFFF" d="M9.4,26.8c11.3,0,17.5-9.1,17.5-17c0-0.3,0-0.5,0-0.8C28.1,8.2,29.2,7.2,30,6
	c-1.1,0.5-2.3,0.8-3.5,0.9c1.3-0.7,2.2-1.9,2.7-3.3c-1.2,0.7-2.5,1.2-3.9,1.4c-1.1-1.2-2.7-1.9-4.5-1.9c-3.4,0-6.2,2.7-6.2,6
	c0,0.5,0.1,0.9,0.2,1.4C9.7,10.3,5.1,7.9,2.1,4.3c-0.5,0.9-0.8,1.9-0.8,3c0,2.1,1.1,3.9,2.7,5c-1,0-2-0.3-2.8-0.7c0,0,0,0,0,0.1
	c0,2.9,2.1,5.3,4.9,5.9c-0.5,0.1-1.1,0.2-1.6,0.2c-0.4,0-0.8,0-1.2-0.1c0.8,2.4,3.1,4.1,5.8,4.1c-2.1,1.6-4.8,2.6-7.6,2.6
	c-0.5,0-1,0-1.5-0.1C2.7,25.8,6,26.8,9.4,26.8"/>
</svg>
