<?xml version="1.0" encoding="utf-8"?>
<!-- Generator: Adobe Illustrator 21.0.0, SVG Export Plug-In . SVG Version: 6.00 Build 0)  -->
<svg version="1.1" id="Layer_1" xmlns="http://www.w3.org/2000/svg" xmlns:xlink="http://www.w3.org/1999/xlink" x="0px" y="0px"
	 viewBox="0 0 87.1 38.9" style="enable-background:new 0 0 87.1 38.9;" xml:space="preserve">
<style type="text/css">
	.st0{fill:#5D6F6A;}
	.st1{fill:#737477;}
	.st2{fill:#FFFFFF;}
</style>
<g>
	<rect x="0.8" y="27.7" class="st2" width="85.2" height="0.2"/>
	<path class="st2" d="M1.6,34.5c0-1.4,0-1.7,0-2c0-0.3-0.1-0.5-0.4-0.5c-0.1,0-0.2,0-0.3,0c0,0-0.1,0-0.1-0.1c0-0.1,0-0.1,0.1-0.1
		c0.4,0,1,0,1,0c0.2,0,2.1,0,2.3,0c0.2,0,0.3,0,0.4,0c0.1,0,0.1-0.1,0.1-0.1c0,0,0.1,0,0.1,0.1c0,0.1,0,0.2-0.1,0.4
		c0,0.1,0,0.5,0,0.6c0,0,0,0.1-0.1,0.1c0,0-0.1,0-0.1-0.1c0-0.1,0-0.2-0.1-0.3c-0.1-0.1-0.3-0.3-0.6-0.3l-1.4,0
		c-0.1,0-0.1,0-0.1,0.1v2.5c0,0.1,0,0.1,0.1,0.1l1.2,0c0.2,0,0.3,0,0.4,0c0.2,0,0.3,0,0.4-0.2c0,0,0.1-0.1,0.1-0.1c0,0,0,0,0,0.1
		c0,0.1,0,0.2-0.1,0.5c0,0.2,0,0.6,0,0.6c0,0.1,0,0.2-0.1,0.2c0,0-0.1,0-0.1-0.1c0-0.1,0-0.2-0.1-0.3c0-0.1-0.2-0.3-0.5-0.3
		c-0.2,0-1.2,0-1.4,0c0,0-0.1,0-0.1,0.1v0.8c0,0.9,0,1.6,0,2c0,0.3,0.1,0.5,0.4,0.5c0.1,0,0.3,0,0.4,0c0.1,0,0.1,0,0.1,0.1
		c0,0,0,0.1-0.1,0.1c-0.5,0-1.1,0-1.1,0c0,0-0.6,0-0.9,0c-0.1,0-0.1,0-0.1-0.1c0,0,0-0.1,0.1-0.1c0.1,0,0.2,0,0.3,0
		c0.2,0,0.2-0.2,0.3-0.5c0-0.4,0-1.1,0-2V34.5z"/>
	<path class="st2" d="M11.3,38.5c0.8,0,2.5-0.5,2.5-3.2c0-2.2-1.3-3.4-2.8-3.4c-1.5,0-2.7,1-2.7,3C8.4,37.1,9.7,38.5,11.3,38.5
		 M11.1,31.7c2.1,0,3.6,1.3,3.6,3.4c0,2.1-1.5,3.8-3.7,3.8c-2.5,0-3.6-2-3.6-3.6C7.5,33.8,8.6,31.7,11.1,31.7"/>
	<path class="st2" d="M18.4,34.5c0-1.4,0-1.7,0-2c0-0.3-0.1-0.5-0.4-0.5c-0.1,0-0.2,0-0.3,0c0,0-0.1,0-0.1-0.1c0-0.1,0-0.1,0.1-0.1
		c0.4,0,1,0,1.1,0c0.1,0,0.6,0,0.9,0c0.1,0,0.1,0,0.1,0.1c0,0,0,0.1-0.1,0.1c-0.1,0-0.1,0-0.2,0c-0.2,0-0.3,0.2-0.3,0.5
		c0,0.3,0,0.5,0,2v1.3c0,1.3,0.3,1.9,0.7,2.3c0.4,0.4,0.9,0.5,1.4,0.5c0.6,0,1.1-0.3,1.4-0.7c0.4-0.5,0.5-1.3,0.5-2.3v-1.2
		c0-1.4,0-1.7,0-2c0-0.3-0.1-0.5-0.4-0.5c-0.1,0-0.2,0-0.3,0c0,0-0.1,0-0.1-0.1c0-0.1,0-0.1,0.1-0.1c0.4,0,0.9,0,1,0
		c0.1,0,0.5,0,0.8,0c0.1,0,0.1,0,0.1,0.1c0,0,0,0.1-0.1,0.1c-0.1,0-0.1,0-0.2,0c-0.2,0-0.3,0.2-0.3,0.5c0,0.3,0,0.5,0,2v1
		c0,1-0.1,2.1-0.8,2.7c-0.7,0.6-1.4,0.7-1.9,0.7c-0.3,0-1.2,0-1.9-0.7c-0.4-0.4-0.8-1.1-0.8-2.4V34.5z"/>
	<path class="st2" d="M28.7,37.5c0,0.8,0.1,1,0.4,1.1c0.2,0,0.4,0.1,0.5,0.1c0,0,0.1,0,0.1,0.1c0,0.1-0.1,0.1-0.2,0.1
		c-0.5,0-0.9,0-1,0c-0.1,0-0.5,0-0.9,0c-0.1,0-0.1,0-0.1-0.1c0,0,0-0.1,0.1-0.1c0.1,0,0.2,0,0.4-0.1c0.2-0.1,0.3-0.3,0.3-1.2l0-5.3
		c0-0.4,0-0.5,0.1-0.5c0.1,0,0.2,0.2,0.3,0.3c0.1,0.2,1.5,1.6,2.9,3.2c0.9,1,1.9,2.1,2.2,2.4l-0.1-4.7c0-0.6-0.1-0.8-0.4-0.9
		c-0.2,0-0.4,0-0.4,0c-0.1,0-0.1,0-0.1-0.1c0-0.1,0.1-0.1,0.2-0.1c0.4,0,0.9,0,1,0c0.1,0,0.4,0,0.8,0c0.1,0,0.2,0,0.2,0.1
		c0,0,0,0.1-0.1,0.1c0,0-0.1,0-0.2,0c-0.3,0.1-0.3,0.3-0.3,0.8l0,5.4c0,0.6,0,0.7-0.1,0.7c-0.1,0-0.2-0.1-0.7-0.6
		c-0.1-0.1-1.4-1.4-2.4-2.5c-1.1-1.1-2.1-2.3-2.4-2.6L28.7,37.5z"/>
	<path class="st2" d="M39.8,35.5c0,1,0,1.8,0,2c0,0.2,0,0.6,0.1,0.7c0.1,0.2,0.5,0.4,1.6,0.4c0.9,0,1.6-0.3,2.2-0.9
		c0.5-0.5,0.7-1.4,0.7-2.2c0-1.2-0.5-1.9-0.9-2.3c-0.9-0.9-1.9-1-3-1c-0.2,0-0.5,0-0.6,0.1c-0.1,0-0.1,0.1-0.1,0.2c0,0.3,0,1.2,0,2
		V35.5z M39,34.5c0-1.4,0-1.7,0-2c0-0.3-0.1-0.5-0.4-0.5c-0.1,0-0.2,0-0.3,0c0,0-0.1,0-0.1-0.1c0-0.1,0-0.1,0.1-0.1c0.4,0,1,0,1,0
		c0.1,0,0.7,0,1.2,0c0.9,0,2.6-0.1,3.7,1c0.5,0.5,0.9,1.2,0.9,2.3c0,1.2-0.5,2.1-1,2.6c-0.4,0.4-1.2,1.1-2.8,1.1
		c-0.8,0-1.9-0.1-2-0.1c0,0-0.6,0-0.9,0c-0.1,0-0.1,0-0.1-0.1c0,0,0-0.1,0.1-0.1c0.1,0,0.2,0,0.3,0c0.2,0,0.2-0.2,0.3-0.5
		c0-0.4,0-1.1,0-2V34.5z"/>
	<path class="st2" d="M51.3,35.7C51.3,35.7,51.3,35.7,51.3,35.7l-0.8-2.5c0-0.1-0.1-0.1-0.1,0l-0.8,2.5c0,0,0,0.1,0,0.1H51.3z
		 M50.3,32c0.1-0.3,0.1-0.4,0.2-0.4c0.1,0,0.1,0,0.2,0.3c0.1,0.3,1.6,4.1,2.1,5.5c0.3,0.8,0.6,1,0.8,1c0.1,0,0.3,0.1,0.4,0.1
		c0.1,0,0.1,0,0.1,0.1c0,0.1-0.1,0.1-0.2,0.1c-0.1,0-0.8,0-1.4,0c-0.2,0-0.3,0-0.3-0.1c0,0,0-0.1,0.1-0.1c0.1,0,0.1-0.1,0.1-0.2
		l-0.9-2.3c0,0,0-0.1-0.1-0.1h-2c0,0-0.1,0-0.1,0.1l-0.6,1.6c-0.1,0.2-0.1,0.5-0.1,0.6c0,0.2,0.2,0.3,0.3,0.3h0.1
		c0.1,0,0.1,0,0.1,0.1c0,0.1-0.1,0.1-0.1,0.1c-0.2,0-0.6,0-0.7,0c-0.1,0-0.6,0-1,0c-0.1,0-0.2,0-0.2-0.1c0,0,0-0.1,0.1-0.1
		c0.1,0,0.2,0,0.3,0c0.4-0.1,0.6-0.4,0.8-0.9L50.3,32z"/>
	<path class="st2" d="M58.9,36.1c0,0.9,0,1.6,0,2c0,0.3,0.1,0.5,0.4,0.5c0.1,0,0.3,0,0.4,0c0.1,0,0.1,0,0.1,0.1c0,0,0,0.1-0.1,0.1
		c-0.5,0-1.1,0-1.1,0c0,0-0.6,0-0.9,0c-0.1,0-0.1,0-0.1-0.1c0,0,0-0.1,0.1-0.1c0.1,0,0.2,0,0.3,0c0.2,0,0.2-0.2,0.3-0.5
		c0-0.4,0-1.1,0-2v-3.9l-1.4,0c-0.6,0-0.8,0.1-0.9,0.3c-0.1,0.2-0.1,0.2-0.2,0.3c0,0.1-0.1,0.1-0.1,0.1c0,0-0.1,0-0.1-0.1
		c0-0.1,0.3-0.9,0.3-1c0-0.1,0.1-0.2,0.1-0.2c0.1,0,0.2,0.1,0.4,0.1c0.3,0,0.6,0,0.7,0h3.4c0.6,0,0.8-0.1,0.9-0.1c0,0,0,0.1,0,0.1
		c0,0.3,0,0.9,0,1c0,0.1,0,0.1-0.1,0.1c0,0-0.1,0-0.1-0.2l0-0.1c0-0.3-0.2-0.5-1.1-0.5l-1.2,0V36.1z"/>
	<path class="st2" d="M65.6,36.1c0,0.9,0,1.6,0,2c0,0.3,0.1,0.5,0.4,0.5c0.1,0,0.3,0,0.4,0c0.1,0,0.1,0,0.1,0.1c0,0,0,0.1-0.1,0.1
		c-0.5,0-1.1,0-1.1,0c0,0-0.6,0-0.9,0c-0.1,0-0.1,0-0.1-0.1c0,0,0-0.1,0.1-0.1c0.1,0,0.2,0,0.3,0c0.2,0,0.2-0.2,0.3-0.5
		c0-0.4,0-1.1,0-2v-1.6c0-1.4,0-1.7,0-2c0-0.3-0.1-0.5-0.3-0.5c-0.1,0-0.2,0-0.3,0c0,0-0.1,0-0.1-0.1c0-0.1,0-0.1,0.1-0.1
		c0.3,0,0.9,0,0.9,0c0,0,0.6,0,0.9,0c0.1,0,0.1,0,0.1,0.1c0,0,0,0.1-0.1,0.1c-0.1,0-0.1,0-0.2,0c-0.2,0-0.3,0.2-0.3,0.5
		c0,0.3,0,0.6,0,2V36.1z"/>
	<path class="st2" d="M73.1,38.5c0.8,0,2.5-0.5,2.5-3.2c0-2.2-1.3-3.4-2.8-3.4c-1.5,0-2.7,1-2.7,3C70.2,37.1,71.4,38.5,73.1,38.5
		 M72.9,31.7c2.1,0,3.6,1.3,3.6,3.4c0,2.1-1.5,3.8-3.7,3.8c-2.5,0-3.6-2-3.6-3.6C69.3,33.8,70.4,31.7,72.9,31.7"/>
	<path class="st2" d="M80.7,37.5c0,0.8,0.1,1,0.4,1.1c0.2,0,0.4,0.1,0.5,0.1c0,0,0.1,0,0.1,0.1c0,0.1-0.1,0.1-0.2,0.1
		c-0.5,0-0.9,0-1,0c-0.1,0-0.5,0-0.9,0c-0.1,0-0.1,0-0.1-0.1c0,0,0-0.1,0.1-0.1c0.1,0,0.2,0,0.4-0.1c0.2-0.1,0.3-0.3,0.3-1.2l0-5.3
		c0-0.4,0-0.5,0.1-0.5c0.1,0,0.2,0.2,0.3,0.3c0.1,0.2,1.5,1.6,2.9,3.2c0.9,1,1.9,2.1,2.2,2.4l-0.1-4.7c0-0.6-0.1-0.8-0.4-0.9
		c-0.2,0-0.4,0-0.4,0c-0.1,0-0.1,0-0.1-0.1c0-0.1,0.1-0.1,0.2-0.1c0.4,0,0.9,0,1,0s0.4,0,0.8,0c0.1,0,0.2,0,0.2,0.1
		c0,0,0,0.1-0.1,0.1c0,0-0.1,0-0.2,0c-0.3,0.1-0.3,0.3-0.3,0.8l0,5.4c0,0.6,0,0.7-0.1,0.7c-0.1,0-0.2-0.1-0.7-0.6
		c-0.1-0.1-1.4-1.4-2.4-2.5c-1.1-1.1-2.1-2.3-2.4-2.6L80.7,37.5z"/>
	<path class="st2" d="M5.3,23.7c1.2,0,3.5-0.6,3.5-4.4c0-3.1-1.9-4.7-3.9-4.7c-2.1,0-3.7,1.4-3.7,4.2C1.2,21.8,3,23.7,5.3,23.7
		 M5,14.2c2.9,0,5,1.8,5,4.8c0,2.9-2,5.2-5.1,5.2c-3.5,0-5-2.7-5-5C0,17.1,1.5,14.2,5,14.2"/>
	<path class="st2" d="M19.1,19.8C19.2,19.8,19.2,19.8,19.1,19.8l-1.2-3.5c-0.1-0.2-0.1-0.2-0.2,0l-1.1,3.4c0,0.1,0,0.1,0,0.1H19.1z
		 M17.8,14.7c0.2-0.4,0.2-0.5,0.3-0.5c0.1,0,0.1,0.1,0.3,0.5c0.2,0.5,2.2,5.8,3,7.7c0.5,1.1,0.8,1.3,1.1,1.4
		c0.2,0.1,0.4,0.1,0.5,0.1c0.1,0,0.1,0,0.1,0.1c0,0.1-0.1,0.1-0.3,0.1c-0.2,0-1.1,0-2,0c-0.2,0-0.4,0-0.4-0.1c0-0.1,0-0.1,0.1-0.1
		c0.1,0,0.1-0.1,0.1-0.3l-1.2-3.1c0-0.1-0.1-0.1-0.1-0.1h-2.7c-0.1,0-0.1,0-0.1,0.1l-0.8,2.3c-0.1,0.3-0.2,0.6-0.2,0.8
		c0,0.3,0.3,0.4,0.5,0.4h0.1c0.1,0,0.1,0,0.1,0.1c0,0.1-0.1,0.1-0.2,0.1c-0.3,0-0.9,0-1,0c-0.1,0-0.9,0-1.5,0c-0.2,0-0.2,0-0.2-0.1
		c0,0,0.1-0.1,0.1-0.1c0.1,0,0.3,0,0.4,0c0.6-0.1,0.9-0.6,1.1-1.2L17.8,14.7z"/>
	<path class="st2" d="M27.9,18.1c0-2,0-2.4,0-2.8c0-0.4-0.1-0.6-0.6-0.7c-0.1,0-0.3,0-0.4,0c0,0-0.1,0-0.1-0.1
		c0-0.1,0.1-0.1,0.2-0.1c0.6,0,1.3,0,1.4,0c0.1,0,0.8,0,1.2,0c0.1,0,0.2,0,0.2,0.1c0,0.1-0.1,0.1-0.1,0.1c-0.1,0-0.2,0-0.3,0
		c-0.3,0.1-0.5,0.3-0.5,0.7c0,0.4,0,0.8,0,2.8v0.8h0c0.2-0.2,2.6-2.6,3-3.1c0.4-0.4,0.7-0.7,0.7-0.9c0-0.2-0.1-0.2-0.2-0.3
		c-0.1,0-0.1,0-0.1-0.1c0-0.1,0.1-0.1,0.2-0.1c0.3,0,0.6,0,0.9,0c0.1,0,0.9,0,1.2,0c0.1,0,0.2,0,0.2,0.1c0,0.1,0,0.1-0.1,0.1
		c-0.2,0-0.5,0.1-0.7,0.2c-0.5,0.2-0.8,0.5-1.4,1.1c-0.3,0.3-2.6,2.5-2.8,2.8c0.3,0.4,3,3.1,3.5,3.6c1.1,1,1.3,1.2,1.9,1.4
		c0.3,0.1,0.7,0.2,0.8,0.2c0.1,0,0.2,0,0.2,0.1c0,0.1-0.1,0.1-0.3,0.1h-0.7c-0.4,0-0.6,0-0.9,0c-0.7-0.1-1-0.3-1.5-0.8
		c-0.6-0.4-3.3-3.4-3.9-4.2h-0.1v1.3c0,1.2,0,2.3,0.1,2.8c0,0.4,0.1,0.6,0.5,0.7c0.2,0,0.4,0.1,0.5,0.1c0.1,0,0.1,0,0.1,0.1
		c0,0.1-0.1,0.1-0.2,0.1c-0.6,0-1.3,0-1.5,0c-0.1,0-0.9,0-1.2,0c-0.1,0-0.2,0-0.2-0.1c0,0,0-0.1,0.1-0.1c0.1,0,0.3,0,0.4-0.1
		c0.3-0.1,0.3-0.3,0.4-0.7c0.1-0.5,0.1-1.5,0.1-2.8V18.1z"/>
	<path class="st2" d="M41.7,20.4c0,1.9,0,2.7,0.3,2.9c0.2,0.2,0.5,0.3,1.5,0.3c0.7,0,1.3,0,1.5-0.4c0.2-0.2,0.3-0.5,0.3-0.7
		c0-0.1,0-0.2,0.1-0.2c0.1,0,0.1,0,0.1,0.2c0,0.1-0.1,0.9-0.2,1.3c-0.1,0.3-0.1,0.3-0.8,0.3c-1.9,0-2.7-0.1-3.5-0.1
		c-0.1,0-0.8,0-1.2,0c-0.1,0-0.2,0-0.2-0.1c0,0,0-0.1,0.1-0.1c0.1,0,0.3,0,0.4-0.1c0.3-0.1,0.3-0.3,0.4-0.7c0.1-0.5,0.1-1.5,0.1-2.8
		v-2.2c0-2,0-2.4,0-2.8c0-0.4-0.1-0.6-0.6-0.7c-0.1,0-0.3,0-0.4,0c-0.1,0-0.1,0-0.1-0.1c0-0.1,0.1-0.1,0.2-0.1c0.6,0,1.4,0,1.4,0
		c0.1,0,1,0,1.4,0c0.1,0,0.2,0,0.2,0.1c0,0.1-0.1,0.1-0.1,0.1c-0.1,0-0.3,0-0.4,0c-0.4,0.1-0.5,0.3-0.5,0.7c0,0.4,0,0.8,0,2.8V20.4z
		"/>
	<path class="st2" d="M54.8,19.8C54.9,19.8,54.9,19.8,54.8,19.8l-1.2-3.5c-0.1-0.2-0.1-0.2-0.2,0l-1.1,3.4c0,0.1,0,0.1,0,0.1H54.8z
		 M53.5,14.7c0.2-0.4,0.2-0.5,0.3-0.5s0.1,0.1,0.3,0.5c0.2,0.5,2.2,5.8,3,7.7c0.4,1.1,0.8,1.3,1.1,1.4c0.2,0.1,0.4,0.1,0.5,0.1
		c0.1,0,0.1,0,0.1,0.1c0,0.1-0.1,0.1-0.3,0.1c-0.2,0-1.1,0-2,0c-0.2,0-0.4,0-0.4-0.1c0-0.1,0-0.1,0.1-0.1c0.1,0,0.2-0.1,0.1-0.3
		l-1.2-3.1c0-0.1-0.1-0.1-0.1-0.1h-2.7c-0.1,0-0.1,0-0.1,0.1l-0.8,2.3c-0.1,0.3-0.2,0.6-0.2,0.8c0,0.3,0.3,0.4,0.5,0.4h0.1
		c0.1,0,0.1,0,0.1,0.1c0,0.1-0.1,0.1-0.2,0.1c-0.3,0-0.9,0-1,0c-0.1,0-0.9,0-1.5,0c-0.1,0-0.2,0-0.2-0.1c0,0,0.1-0.1,0.1-0.1
		c0.1,0,0.2,0,0.3,0c0.6-0.1,0.9-0.6,1.1-1.2L53.5,14.7z"/>
	<path class="st2" d="M64,22.3c0,1,0.2,1.4,0.5,1.5c0.2,0.1,0.5,0.1,0.6,0.1c0.1,0,0.1,0,0.1,0.1c0,0.1-0.1,0.1-0.2,0.1
		c-0.7,0-1.3,0-1.4,0c-0.1,0-0.7,0-1.2,0c-0.1,0-0.2,0-0.2-0.1c0,0,0-0.1,0.1-0.1c0.1,0,0.3,0,0.5-0.1c0.3-0.1,0.4-0.5,0.4-1.6
		l0-7.3c0-0.5,0-0.6,0.1-0.6c0.1,0,0.3,0.3,0.5,0.4c0.2,0.2,2.1,2.3,4.1,4.4c1.3,1.3,2.7,2.9,3.1,3.3l-0.1-6.5
		c0-0.8-0.1-1.1-0.5-1.2c-0.2,0-0.5-0.1-0.6-0.1c-0.1,0-0.1,0-0.1-0.1c0-0.1,0.1-0.1,0.3-0.1c0.6,0,1.2,0,1.3,0c0.1,0,0.6,0,1.1,0
		c0.1,0,0.2,0,0.2,0.1c0,0.1-0.1,0.1-0.1,0.1c-0.1,0-0.2,0-0.3,0c-0.4,0.1-0.5,0.4-0.5,1.1l0,7.5c0,0.8,0,0.9-0.1,0.9
		c-0.1,0-0.3-0.1-0.9-0.8c-0.1-0.1-2-2-3.3-3.5c-1.5-1.6-2.9-3.2-3.3-3.7L64,22.3z"/>
	<path class="st2" d="M79.5,19.5c0,1.4,0,2.6,0,2.8c0,0.3,0,0.8,0.1,0.9c0.2,0.2,0.7,0.5,2.2,0.5c1.2,0,2.3-0.4,3.1-1.2
		c0.7-0.7,1-1.9,1-3.1c0-1.6-0.7-2.7-1.2-3.2c-1.2-1.2-2.7-1.4-4.2-1.4c-0.3,0-0.7,0-0.8,0.1c-0.1,0.1-0.2,0.1-0.2,0.2
		c0,0.4,0,1.8,0,2.7V19.5z M78.5,18.1c0-2,0-2.4,0-2.8c0-0.4-0.1-0.6-0.6-0.7c-0.1,0-0.3,0-0.4,0c-0.1,0-0.1,0-0.1-0.1
		c0-0.1,0.1-0.1,0.2-0.1c0.5,0,1.4,0,1.4,0c0.2,0,1,0,1.7,0c1.2,0,3.6-0.1,5.1,1.4c0.6,0.7,1.2,1.7,1.2,3.2c0,1.6-0.7,2.9-1.4,3.6
		c-0.5,0.5-1.7,1.5-3.9,1.5c-1.1,0-2.7-0.2-2.8-0.2c-0.1,0-0.9,0-1.2,0c-0.1,0-0.2,0-0.2-0.1c0,0,0-0.1,0.1-0.1c0.1,0,0.2,0,0.4-0.1
		c0.3-0.1,0.3-0.3,0.4-0.7c0.1-0.5,0.1-1.5,0.1-2.8V18.1z"/>
	<path class="st2" d="M9.2,6.1c0,1.2,0,2.2,0.1,2.8c0,0.4,0.1,0.7,0.5,0.7c0.2,0,0.5,0.1,0.6,0.1c0.1,0,0.1,0,0.1,0.1
		c0,0.1-0.1,0.1-0.2,0.1c-0.7,0-1.5,0-1.6,0c-0.1,0-0.9,0-1.3,0c-0.1,0-0.2,0-0.2-0.1c0,0,0-0.1,0.1-0.1c0.1,0,0.3,0,0.4-0.1
		C7.9,9.6,8,9.3,8,8.9c0.1-0.5,0.1-1.6,0.1-2.8V4.8c0-0.1,0-0.1-0.1-0.1H2.6c0,0-0.1,0-0.1,0.1v1.3c0,1.2,0,2.2,0.1,2.8
		c0,0.4,0.1,0.7,0.5,0.7c0.2,0,0.5,0.1,0.6,0.1c0.1,0,0.1,0,0.1,0.1c0,0.1-0.1,0.1-0.2,0.1c-0.7,0-1.5,0-1.6,0c-0.1,0-0.9,0-1.3,0
		c-0.1,0-0.2,0-0.2-0.1c0,0,0-0.1,0.1-0.1c0.1,0,0.3,0,0.4-0.1c0.3,0,0.3-0.3,0.4-0.7c0.1-0.5,0.1-1.6,0.1-2.8V3.9c0-2,0-2.4,0-2.8
		c0-0.4-0.1-0.6-0.6-0.7c-0.1,0-0.3,0-0.4,0c-0.1,0-0.1,0-0.1-0.1c0-0.1,0.1-0.1,0.2-0.1c0.6,0,1.4,0,1.4,0c0.1,0,0.9,0,1.3,0
		c0.1,0,0.2,0,0.2,0.1c0,0.1-0.1,0.1-0.1,0.1c-0.1,0-0.2,0-0.3,0C2.7,0.5,2.6,0.7,2.5,1.1c0,0.4,0,0.8,0,2.8v0.3
		c0,0.1,0,0.1,0.1,0.1H8c0,0,0.1,0,0.1-0.1V3.9c0-2,0-2.4,0-2.8c0-0.4-0.1-0.6-0.5-0.7c-0.1,0-0.3,0-0.4,0C7,0.4,7,0.3,7,0.3
		C7,0.2,7,0.2,7.2,0.2c0.6,0,1.4,0,1.4,0c0.1,0,0.9,0,1.3,0c0.1,0,0.2,0,0.2,0.1c0,0.1-0.1,0.1-0.1,0.1c-0.1,0-0.2,0-0.3,0
		C9.3,0.5,9.2,0.7,9.2,1.1c0,0.4,0,0.8,0,2.8V6.1z"/>
	<path class="st2" d="M17.5,6.1c0,1.2,0,2.2,0.1,2.8c0,0.4,0.1,0.7,0.5,0.7c0.2,0,0.5,0.1,0.6,0.1c0.1,0,0.1,0,0.1,0.1
		c0,0.1-0.1,0.1-0.2,0.1c-0.7,0-1.5,0-1.6,0c-0.1,0-0.9,0-1.3,0c-0.1,0-0.2,0-0.2-0.1c0,0,0-0.1,0.1-0.1c0.1,0,0.3,0,0.4-0.1
		c0.3,0,0.3-0.3,0.4-0.7c0.1-0.5,0.1-1.6,0.1-2.8V3.9c0-2,0-2.4,0-2.8c0-0.4-0.2-0.7-0.4-0.7c-0.1,0-0.3-0.1-0.4-0.1
		c0,0-0.1,0-0.1-0.1c0-0.1,0.1-0.1,0.2-0.1c0.4,0,1.2,0,1.3,0c0.1,0,0.9,0,1.3,0c0.1,0,0.2,0,0.2,0.1c0,0.1-0.1,0.1-0.1,0.1
		c-0.1,0-0.2,0-0.3,0c-0.3,0.1-0.4,0.3-0.5,0.7c0,0.4,0,0.8,0,2.8V6.1z"/>
	<path class="st2" d="M23.6,9.7c-0.2-0.1-0.2-0.1-0.2-0.5c0-0.6,0-1.2,0.1-1.4c0-0.1,0-0.2,0.1-0.2c0.1,0,0.1,0,0.1,0.1
		c0,0.1,0,0.3,0,0.5c0.2,0.9,1,1.3,1.9,1.3c1.2,0,1.8-0.9,1.8-1.7c0-0.9-0.4-1.4-1.5-2.3l-0.6-0.5C24,4,23.7,3.2,23.7,2.3
		c0-1.4,1-2.3,2.7-2.3c0.5,0,0.9,0.1,1.2,0.1c0.2,0,0.3,0.1,0.4,0.1c0.1,0,0.1,0,0.1,0.1c0,0.1-0.1,0.5-0.1,1.4c0,0.2,0,0.3-0.1,0.3
		c-0.1,0-0.1-0.1-0.1-0.2c0-0.2-0.1-0.5-0.2-0.6c-0.1-0.1-0.4-0.7-1.6-0.7c-0.9,0-1.6,0.5-1.6,1.5c0,0.7,0.4,1.2,1.6,2.2l0.4,0.3
		c1.5,1.2,1.9,2,1.9,3c0,0.5-0.2,1.5-1.1,2.1C26.7,9.9,26,10,25.3,10C24.7,10,24.1,10,23.6,9.7"/>
	<path class="st2" d="M36.7,6.1c0,1.2,0,2.2,0.1,2.8c0,0.4,0.1,0.7,0.5,0.7c0.2,0,0.5,0.1,0.6,0.1c0.1,0,0.1,0,0.1,0.1
		c0,0.1-0.1,0.1-0.2,0.1c-0.7,0-1.5,0-1.6,0c-0.1,0-0.9,0-1.3,0c-0.1,0-0.2,0-0.2-0.1c0,0,0-0.1,0.1-0.1c0.1,0,0.3,0,0.4-0.1
		c0.3,0,0.3-0.3,0.4-0.7c0.1-0.5,0.1-1.6,0.1-2.8V0.7l-1.9,0c-0.8,0-1.1,0.1-1.3,0.4c-0.1,0.2-0.2,0.3-0.2,0.4
		c0,0.1-0.1,0.1-0.1,0.1c0,0-0.1,0-0.1-0.1c0-0.1,0.3-1.2,0.3-1.3c0-0.1,0.1-0.2,0.1-0.2c0.1,0,0.2,0.1,0.6,0.2c0.4,0,0.9,0.1,1,0.1
		h4.8c0.8,0,1.2-0.1,1.3-0.1c0.1,0,0.1,0.1,0.1,0.2c0,0.4,0,1.3,0,1.4c0,0.1,0,0.2-0.1,0.2c-0.1,0-0.1,0-0.1-0.2l0-0.1
		c-0.1-0.4-0.3-0.7-1.6-0.7l-1.6,0V6.1z"/>
	<path class="st2" d="M48.5,9.6c1.2,0,3.5-0.7,3.5-4.4c0-3.1-1.9-4.7-3.9-4.7c-2.1,0-3.7,1.4-3.7,4.2C44.4,7.6,46.2,9.6,48.5,9.6
		 M48.3,0c2.9,0,5,1.8,5,4.8c0,2.9-2,5.2-5.1,5.2c-3.5,0-5-2.7-5-5C43.2,2.9,44.7,0,48.3,0"/>
	<path class="st2" d="M59.6,5c0,0.1,0,0.1,0.1,0.2c0.2,0.1,0.8,0.2,1.3,0.2c0.3,0,0.7,0,1-0.2c0.4-0.3,0.8-1,0.8-2
		c0-1.6-0.8-2.6-2.2-2.6c-0.4,0-0.7,0-0.9,0.1c-0.1,0-0.1,0.1-0.1,0.2V5z M58.6,3.9c0-2,0-2.4,0-2.8c0-0.4-0.1-0.6-0.6-0.7
		c-0.1,0-0.3,0-0.4,0c0,0-0.1,0-0.1-0.1c0-0.1,0.1-0.1,0.2-0.1c0.6,0,1.4,0,1.4,0c0.1,0,1.1,0,1.5,0c0.8,0,1.7,0.1,2.3,0.6
		c0.3,0.2,0.9,0.9,0.9,1.7c0,0.9-0.4,1.9-1.5,3c1.1,1.3,1.9,2.5,2.7,3.3c0.7,0.7,1.2,0.9,1.6,0.9c0.2,0,0.4,0,0.5,0
		c0.1,0,0.1,0,0.1,0.1c0,0.1-0.1,0.1-0.3,0.1h-0.9c-0.7,0-1-0.1-1.4-0.2c-0.6-0.3-1-0.9-1.7-1.9c-0.5-0.7-1.1-1.6-1.4-1.9
		c-0.1-0.1-0.1-0.1-0.2-0.1l-1.6,0c-0.1,0-0.1,0-0.1,0.1v0.3c0,1.2,0,2.2,0.1,2.8c0,0.4,0.1,0.7,0.5,0.7c0.2,0,0.5,0.1,0.6,0.1
		c0.1,0,0.1,0,0.1,0.1c0,0.1-0.1,0.1-0.2,0.1c-0.7,0-1.5,0-1.6,0c0,0-0.8,0-1.2,0c-0.1,0-0.2,0-0.2-0.1c0,0,0-0.1,0.1-0.1
		c0.1,0,0.3,0,0.4-0.1c0.3-0.1,0.3-0.3,0.4-0.7c0.1-0.5,0.1-1.6,0.1-2.8V3.9z"/>
	<path class="st2" d="M72.5,6.1c0,1.2,0,2.2,0.1,2.8c0,0.4,0.1,0.7,0.5,0.7c0.2,0,0.5,0.1,0.6,0.1c0.1,0,0.1,0,0.1,0.1
		c0,0.1-0.1,0.1-0.2,0.1c-0.7,0-1.5,0-1.6,0c-0.1,0-0.9,0-1.3,0c-0.1,0-0.2,0-0.2-0.1c0,0,0-0.1,0.1-0.1c0.1,0,0.3,0,0.4-0.1
		c0.3,0,0.3-0.3,0.4-0.7c0.1-0.5,0.1-1.6,0.1-2.8V3.9c0-2,0-2.4,0-2.8c0-0.4-0.2-0.7-0.4-0.7c-0.1,0-0.3-0.1-0.4-0.1
		c0,0-0.1,0-0.1-0.1c0-0.1,0.1-0.1,0.2-0.1c0.4,0,1.2,0,1.3,0c0.1,0,0.9,0,1.3,0c0.1,0,0.2,0,0.2,0.1c0,0.1-0.1,0.1-0.1,0.1
		c-0.1,0-0.2,0-0.3,0c-0.3,0.1-0.4,0.3-0.5,0.7c0,0.4,0,0.8,0,2.8V6.1z"/>
	<path class="st2" d="M79.4,8.7c-1.2-1.1-1.5-2.6-1.5-3.8c0-0.9,0.3-2.4,1.4-3.5C80.1,0.6,81.3,0,83.2,0c0.5,0,1.2,0,1.9,0.2
		c0.5,0.1,0.9,0.2,1.3,0.2c0.1,0,0.2,0.1,0.2,0.1c0,0.1,0,0.3-0.1,0.7c0,0.4,0,1.1,0,1.3c0,0.2,0,0.3-0.1,0.3
		c-0.1,0-0.1-0.1-0.1-0.3c0-0.5-0.2-1-0.5-1.3c-0.4-0.4-1.4-0.7-2.6-0.7c-1.7,0-2.5,0.5-2.9,0.9c-0.9,0.9-1.2,2-1.2,3.3
		c0,2.4,1.9,4.7,4.6,4.7c1,0,1.7-0.1,2.2-0.6c0.3-0.3,0.4-0.8,0.5-1.1c0-0.1,0-0.2,0.1-0.2c0.1,0,0.1,0.1,0.1,0.2
		c0,0.1-0.2,1.2-0.3,1.6c-0.1,0.2-0.1,0.3-0.3,0.4C85.5,10,84.5,10,83.7,10C81.8,10,80.5,9.6,79.4,8.7"/>
</g>
</svg>
