<?xml version="1.0" encoding="utf-8"?>
<!-- Generator: Adobe Illustrator 21.0.0, SVG Export Plug-In . SVG Version: 6.00 Build 0)  -->
<svg version="1.1" id="Layer_1" xmlns="http://www.w3.org/2000/svg" xmlns:xlink="http://www.w3.org/1999/xlink" x="0px" y="0px"
	 viewBox="0 0 30 30" enable-background="new 0 0 30 30" xml:space="preserve">
<path id="facbook" fill="#222222" d="M26.6,2.5H3.4C2.6,2.5,2,3.1,2,3.9v22.3c0,0.8,0.6,1.4,1.4,1.4h12.5v-9.7h-3.4V14h3.4v-2.8
	c0-3.2,2.1-5,5-5c1.4,0,2.7,0.1,3,0.1v3.4h-2.1c-1.6,0-1.9,0.7-1.9,1.8V14h3.9l-0.5,3.8h-3.4v9.7h6.6c0.8,0,1.4-0.6,1.4-1.4V3.9
	C28,3.1,27.4,2.5,26.6,2.5"/>
</svg>
