<?xml version="1.0" encoding="utf-8"?>
<!-- Generator: Adobe Illustrator 21.0.0, SVG Export Plug-In . SVG Version: 6.00 Build 0)  -->
<svg version="1.1" id="Layer_1" xmlns="http://www.w3.org/2000/svg" xmlns:xlink="http://www.w3.org/1999/xlink" x="0px" y="0px"
	 viewBox="0 0 30 30" enable-background="new 0 0 30 30" xml:space="preserve">
<g id="instagram">
	<path fill="#222222" d="M27.9,9.6c-0.1-1.4-0.3-2.3-0.6-3.2c-0.3-0.9-0.8-1.6-1.5-2.3s-1.4-1.2-2.3-1.5c-0.8-0.3-1.8-0.5-3.2-0.6
		C19,2,18.5,2,15,2s-4,0-5.4,0.1c-1.3,0-2.3,0.3-3.1,0.6C5.6,3,4.9,3.5,4.2,4.2S3,5.6,2.7,6.5C2.4,7.3,2.1,8.3,2.1,9.6
		C2,11,2,11.5,2,15s0,4,0.1,5.4s0.3,2.3,0.6,3.2c0.3,0.9,0.8,1.6,1.5,2.3c0.7,0.7,1.4,1.2,2.3,1.5c0.8,0.3,1.8,0.5,3.2,0.6
		c1.3,0,1.8,0,5.3,0s4,0,5.4-0.1s2.3-0.3,3.2-0.6c0.9-0.3,1.6-0.8,2.3-1.5c0.7-0.7,1.2-1.4,1.5-2.3c0.3-0.8,0.5-1.8,0.6-3.2
		c0-1.3,0-1.8,0-5.3S28,11,27.9,9.6z M25.6,20.3c-0.1,1.3-0.3,2-0.4,2.4c-0.2,0.6-0.5,1-1,1.5s-0.9,0.7-1.5,1
		c-0.5,0.2-1.1,0.4-2.4,0.4c-1.4,0.1-1.8,0.1-5.3,0.1s-3.9,0-5.3-0.1c-1.3-0.1-2-0.3-2.4-0.4c-0.6-0.2-1-0.5-1.5-1s-0.7-0.9-1-1.5
		c-0.2-0.5-0.4-1.1-0.4-2.4c-0.1-1.4-0.1-1.8-0.1-5.3s0-3.9,0.1-5.3c0.1-1.3,0.3-2,0.4-2.4c0.2-0.6,0.5-1,1-1.5s0.9-0.7,1.5-1
		c0.5-0.2,1.1-0.4,2.4-0.4c1.4-0.1,1.8-0.1,5.3-0.1s3.9,0,5.3,0.1c1.3,0.1,2,0.3,2.4,0.4c0.6,0.2,1,0.5,1.5,1s0.7,0.9,1,1.5
		c0.2,0.5,0.4,1.1,0.4,2.4c0.1,1.4,0.1,1.8,0.1,5.3S25.6,18.9,25.6,20.3z"/>
	<path fill="#222222" d="M15,8.2c-3.7,0-6.8,3-6.8,6.8c0,3.7,3,6.8,6.8,6.8c3.7,0,6.8-3,6.8-6.8C21.8,11.3,18.7,8.2,15,8.2z
		 M15,19.4c-2.4,0-4.4-2-4.4-4.4s2-4.4,4.4-4.4s4.4,2,4.4,4.4S17.4,19.4,15,19.4z"/>
	<circle fill="#222222" cx="22.1" cy="7.9" r="1.4"/>
</g>
</svg>
