<?xml version="1.0" encoding="utf-8"?>
<!-- Generator: Adobe Illustrator 21.0.0, SVG Export Plug-In . SVG Version: 6.00 Build 0)  -->
<svg version="1.1" id="Layer_1" xmlns="http://www.w3.org/2000/svg" xmlns:xlink="http://www.w3.org/1999/xlink" x="0px" y="0px"
	 viewBox="0 0 87.1 102.8" enable-background="new 0 0 87.1 102.8" xml:space="preserve">
<g>
	<rect x="0.8" y="91.7" fill="#222222" width="85.2" height="0.2"/>
	<g>
		<path fill="#222222" d="M1.6,98.4c0-1.4,0-1.7,0-2s-0.1-0.5-0.4-0.5c-0.1,0-0.2,0-0.3,0c0,0-0.1,0-0.1-0.1s0-0.1,0.1-0.1
			c0.4,0,1,0,1,0c0.2,0,2.1,0,2.3,0s0.3,0,0.4,0s0.1-0.1,0.1-0.1s0.1,0,0.1,0.1s0,0.2-0.1,0.4c0,0.1,0,0.5,0,0.6c0,0,0,0.1-0.1,0.1
			c0,0-0.1,0-0.1-0.1s0-0.2-0.1-0.3c-0.1-0.1-0.3-0.3-0.6-0.3H2.4c-0.1,0-0.1,0-0.1,0.1v2.5c0,0.1,0,0.1,0.1,0.1h1.2
			c0.2,0,0.3,0,0.4,0c0.2,0,0.3,0,0.4-0.2l0.1-0.1c0,0,0,0,0,0.1s0,0.2-0.1,0.5c0,0.2,0,0.6,0,0.6c0,0.1,0,0.2-0.1,0.2
			c0,0-0.1,0-0.1-0.1s0-0.2-0.1-0.3c0-0.1-0.2-0.3-0.5-0.3c-0.2,0-1.2,0-1.4,0c0,0-0.1,0-0.1,0.1v0.8c0,0.9,0,1.6,0,2
			c0,0.3,0.1,0.5,0.4,0.5c0.1,0,0.3,0,0.4,0c0.1,0,0.1,0,0.1,0.1c0,0,0,0.1-0.1,0.1c-0.5,0-1.1,0-1.1,0s-0.6,0-0.9,0
			c-0.1,0-0.1,0-0.1-0.1c0,0,0-0.1,0.1-0.1s0.2,0,0.3,0c0.2,0,0.2-0.2,0.3-0.5c0-0.4,0-1.1,0-2L1.6,98.4L1.6,98.4z"/>
		<path fill="#222222" d="M11.3,102.5c0.8,0,2.5-0.5,2.5-3.2c0-2.2-1.3-3.4-2.8-3.4s-2.7,1-2.7,3C8.4,101.1,9.7,102.5,11.3,102.5
			 M11.1,95.6c2.1,0,3.6,1.3,3.6,3.4s-1.5,3.8-3.7,3.8c-2.5,0-3.6-2-3.6-3.6C7.5,97.7,8.6,95.6,11.1,95.6"/>
		<path fill="#222222" d="M18.4,98.4c0-1.4,0-1.7,0-2s-0.1-0.5-0.4-0.5c-0.1,0-0.2,0-0.3,0c0,0-0.1,0-0.1-0.1s0-0.1,0.1-0.1
			c0.4,0,1,0,1.1,0s0.6,0,0.9,0c0.1,0,0.1,0,0.1,0.1c0,0,0,0.1-0.1,0.1s-0.1,0-0.2,0c-0.2,0-0.3,0.2-0.3,0.5s0,0.5,0,2v1.3
			c0,1.3,0.3,1.9,0.7,2.3c0.4,0.4,0.9,0.5,1.4,0.5c0.6,0,1.1-0.3,1.4-0.7c0.4-0.5,0.5-1.3,0.5-2.3v-1.2c0-1.4,0-1.7,0-2
			s-0.1-0.5-0.4-0.5c-0.1,0-0.2,0-0.3,0c0,0-0.1,0-0.1-0.1s0-0.1,0.1-0.1c0.4,0,0.9,0,1,0s0.5,0,0.8,0c0.1,0,0.1,0,0.1,0.1
			c0,0,0,0.1-0.1,0.1s-0.1,0-0.2,0c-0.2,0-0.3,0.2-0.3,0.5s0,0.5,0,2v1c0,1-0.1,2.1-0.8,2.7c-0.7,0.6-1.4,0.7-1.9,0.7
			c-0.3,0-1.2,0-1.9-0.7c-0.4-0.4-0.8-1.1-0.8-2.4C18.4,99.6,18.4,98.4,18.4,98.4z"/>
		<path fill="#222222" d="M28.7,101.4c0,0.8,0.1,1,0.4,1.1c0.2,0,0.4,0.1,0.5,0.1c0,0,0.1,0,0.1,0.1s-0.1,0.1-0.2,0.1
			c-0.5,0-0.9,0-1,0s-0.5,0-0.9,0c-0.1,0-0.1,0-0.1-0.1c0,0,0-0.1,0.1-0.1s0.2,0,0.4-0.1c0.2-0.1,0.3-0.3,0.3-1.2V96
			c0-0.4,0-0.5,0.1-0.5s0.2,0.2,0.3,0.3c0.1,0.2,1.5,1.6,2.9,3.2c0.9,1,1.9,2.1,2.2,2.4l-0.1-4.7c0-0.6-0.1-0.8-0.4-0.9
			c-0.2,0-0.4,0-0.4,0c-0.1,0-0.1,0-0.1-0.1s0.1-0.1,0.2-0.1c0.4,0,0.9,0,1,0s0.4,0,0.8,0c0.1,0,0.2,0,0.2,0.1c0,0,0,0.1-0.1,0.1
			c0,0-0.1,0-0.2,0c-0.3,0.1-0.3,0.3-0.3,0.8v5.4c0,0.6,0,0.7-0.1,0.7s-0.2-0.1-0.7-0.6c-0.1-0.1-1.4-1.4-2.4-2.5
			c-1.1-1.1-2.1-2.3-2.4-2.6L28.7,101.4z"/>
		<path fill="#222222" d="M39.8,99.4c0,1,0,1.8,0,2s0,0.6,0.1,0.7c0.1,0.2,0.5,0.4,1.6,0.4c0.9,0,1.6-0.3,2.2-0.9
			c0.5-0.5,0.7-1.4,0.7-2.2c0-1.2-0.5-1.9-0.9-2.3c-0.9-0.9-1.9-1-3-1c-0.2,0-0.5,0-0.6,0.1c-0.1,0-0.1,0.1-0.1,0.2c0,0.3,0,1.2,0,2
			V99.4z M39,98.4c0-1.4,0-1.7,0-2s-0.1-0.5-0.4-0.5c-0.1,0-0.2,0-0.3,0c0,0-0.1,0-0.1-0.1s0-0.1,0.1-0.1c0.4,0,1,0,1,0
			c0.1,0,0.7,0,1.2,0c0.9,0,2.6-0.1,3.7,1c0.5,0.5,0.9,1.2,0.9,2.3c0,1.2-0.5,2.1-1,2.6c-0.4,0.4-1.2,1.1-2.8,1.1
			c-0.8,0-1.9-0.1-2-0.1c0,0-0.6,0-0.9,0c-0.1,0-0.1,0-0.1-0.1c0,0,0-0.1,0.1-0.1s0.2,0,0.3,0c0.2,0,0.2-0.2,0.3-0.5
			c0-0.4,0-1.1,0-2V98.4z"/>
		<path fill="#222222" d="M51.3,99.7C51.3,99.7,51.3,99.6,51.3,99.7l-0.8-2.5c0-0.1-0.1-0.1-0.1,0l-0.8,2.5v0.1L51.3,99.7L51.3,99.7
			z M50.3,96c0.1-0.3,0.1-0.4,0.2-0.4c0.1,0,0.1,0,0.2,0.3c0.1,0.3,1.6,4.1,2.1,5.5c0.3,0.8,0.6,1,0.8,1c0.1,0,0.3,0.1,0.4,0.1
			c0.1,0,0.1,0,0.1,0.1s-0.1,0.1-0.2,0.1c-0.1,0-0.8,0-1.4,0c-0.2,0-0.3,0-0.3-0.1c0,0,0-0.1,0.1-0.1s0.1-0.1,0.1-0.2l-0.9-2.3
			c0,0,0-0.1-0.1-0.1h-2c0,0-0.1,0-0.1,0.1l-0.6,1.6c-0.1,0.2-0.1,0.5-0.1,0.6c0,0.2,0.2,0.3,0.3,0.3H49c0.1,0,0.1,0,0.1,0.1
			s-0.1,0.1-0.1,0.1c-0.2,0-0.6,0-0.7,0c-0.1,0-0.6,0-1,0c-0.1,0-0.2,0-0.2-0.1c0,0,0-0.1,0.1-0.1s0.2,0,0.3,0
			c0.4-0.1,0.6-0.4,0.8-0.9L50.3,96z"/>
		<path fill="#222222" d="M58.9,100c0,0.9,0,1.6,0,2c0,0.3,0.1,0.5,0.4,0.5c0.1,0,0.3,0,0.4,0c0.1,0,0.1,0,0.1,0.1
			c0,0,0,0.1-0.1,0.1c-0.5,0-1.1,0-1.1,0s-0.6,0-0.9,0c-0.1,0-0.1,0-0.1-0.1c0,0,0-0.1,0.1-0.1s0.2,0,0.3,0c0.2,0,0.2-0.2,0.3-0.5
			c0-0.4,0-1.1,0-2v-3.9h-1.4c-0.6,0-0.8,0.1-0.9,0.3c-0.1,0.2-0.1,0.2-0.2,0.3c0,0.1-0.1,0.1-0.1,0.1s-0.1,0-0.1-0.1s0.3-0.9,0.3-1
			s0.1-0.2,0.1-0.2c0.1,0,0.2,0.1,0.4,0.1c0.3,0,0.6,0,0.7,0h3.4c0.6,0,0.8-0.1,0.9-0.1v0.1c0,0.3,0,0.9,0,1s0,0.1-0.1,0.1
			c0,0-0.1,0-0.1-0.2v-0.1c0-0.3-0.2-0.5-1.1-0.5h-1.2C58.9,95.9,58.9,100,58.9,100z"/>
		<path fill="#222222" d="M65.6,100c0,0.9,0,1.6,0,2c0,0.3,0.1,0.5,0.4,0.5c0.1,0,0.3,0,0.4,0s0.1,0,0.1,0.1c0,0,0,0.1-0.1,0.1
			c-0.5,0-1.1,0-1.1,0s-0.6,0-0.9,0c-0.1,0-0.1,0-0.1-0.1c0,0,0-0.1,0.1-0.1s0.2,0,0.3,0c0.2,0,0.2-0.2,0.3-0.5c0-0.4,0-1.1,0-2
			v-1.6c0-1.4,0-1.7,0-2s-0.1-0.5-0.3-0.5c-0.1,0-0.2,0-0.3,0c0,0-0.1,0-0.1-0.1s0-0.1,0.1-0.1c0.3,0,0.9,0,0.9,0s0.6,0,0.9,0
			c0.1,0,0.1,0,0.1,0.1c0,0,0,0.1-0.1,0.1s-0.1,0-0.2,0c-0.2,0-0.3,0.2-0.3,0.5s0,0.6,0,2v1.6H65.6z"/>
		<path fill="#222222" d="M73.1,102.5c0.8,0,2.5-0.5,2.5-3.2c0-2.2-1.3-3.4-2.8-3.4s-2.7,1-2.7,3C70.2,101.1,71.4,102.5,73.1,102.5
			 M72.9,95.6c2.1,0,3.6,1.3,3.6,3.4s-1.5,3.8-3.7,3.8c-2.5,0-3.6-2-3.6-3.6C69.3,97.7,70.4,95.6,72.9,95.6"/>
		<path fill="#222222" d="M80.7,101.4c0,0.8,0.1,1,0.4,1.1c0.2,0,0.4,0.1,0.5,0.1c0,0,0.1,0,0.1,0.1s-0.1,0.1-0.2,0.1
			c-0.5,0-0.9,0-1,0s-0.5,0-0.9,0c-0.1,0-0.1,0-0.1-0.1c0,0,0-0.1,0.1-0.1s0.2,0,0.4-0.1c0.2-0.1,0.3-0.3,0.3-1.2V96
			c0-0.4,0-0.5,0.1-0.5s0.2,0.2,0.3,0.3c0.1,0.2,1.5,1.6,2.9,3.2c0.9,1,1.9,2.1,2.2,2.4l-0.1-4.7c0-0.6-0.1-0.8-0.4-0.9
			c-0.2,0-0.4,0-0.4,0c-0.1,0-0.1,0-0.1-0.1s0.1-0.1,0.2-0.1c0.4,0,0.9,0,1,0s0.4,0,0.8,0c0.1,0,0.2,0,0.2,0.1c0,0,0,0.1-0.1,0.1
			c0,0-0.1,0-0.2,0c-0.3,0.1-0.3,0.3-0.3,0.8v5.4c0,0.6,0,0.7-0.1,0.7s-0.2-0.1-0.7-0.6c-0.1-0.1-1.4-1.4-2.4-2.5
			c-1.1-1.1-2.1-2.3-2.4-2.6L80.7,101.4z"/>
		<path fill="#222222" d="M5.3,87.7c1.2,0,3.5-0.6,3.5-4.4c0-3.1-1.9-4.7-3.9-4.7c-2.1,0-3.7,1.4-3.7,4.2C1.2,85.8,3,87.7,5.3,87.7
			 M5,78.2c2.9,0,5,1.8,5,4.8c0,2.9-2,5.2-5.1,5.2c-3.5,0-5-2.7-5-5C0,81.1,1.5,78.2,5,78.2"/>
		<path fill="#222222" d="M19.1,83.8C19.2,83.8,19.2,83.7,19.1,83.8l-1.2-3.5c-0.1-0.2-0.1-0.2-0.2,0l-1.1,3.4c0,0.1,0,0.1,0,0.1
			H19.1z M17.8,78.7c0.2-0.4,0.2-0.5,0.3-0.5c0.1,0,0.1,0.1,0.3,0.5c0.2,0.5,2.2,5.8,3,7.7c0.5,1.1,0.8,1.3,1.1,1.4
			c0.2,0.1,0.4,0.1,0.5,0.1s0.1,0,0.1,0.1s-0.1,0.1-0.3,0.1c-0.2,0-1.1,0-2,0c-0.2,0-0.4,0-0.4-0.1s0-0.1,0.1-0.1s0.1-0.1,0.1-0.3
			l-1.2-3.1c0-0.1-0.1-0.1-0.1-0.1h-2.7c-0.1,0-0.1,0-0.1,0.1l-0.8,2.3c-0.1,0.3-0.2,0.6-0.2,0.8c0,0.3,0.3,0.4,0.5,0.4h0.1
			c0.1,0,0.1,0,0.1,0.1s-0.1,0.1-0.2,0.1c-0.3,0-0.9,0-1,0s-0.9,0-1.5,0c-0.2,0-0.2,0-0.2-0.1l0.1-0.1c0.1,0,0.3,0,0.4,0
			c0.6-0.1,0.9-0.6,1.1-1.2L17.8,78.7z"/>
		<path fill="#222222" d="M27.9,82.1c0-2,0-2.4,0-2.8s-0.1-0.6-0.6-0.7c-0.1,0-0.3,0-0.4,0c0,0-0.1,0-0.1-0.1s0.1-0.1,0.2-0.1
			c0.6,0,1.3,0,1.4,0s0.8,0,1.2,0c0.1,0,0.2,0,0.2,0.1s-0.1,0.1-0.1,0.1c-0.1,0-0.2,0-0.3,0c-0.3,0.1-0.5,0.3-0.5,0.7
			c0,0.4,0,0.8,0,2.8v0.8l0,0c0.2-0.2,2.6-2.6,3-3.1c0.4-0.4,0.7-0.7,0.7-0.9c0-0.2-0.1-0.2-0.2-0.3c-0.1,0-0.1,0-0.1-0.1
			s0.1-0.1,0.2-0.1c0.3,0,0.6,0,0.9,0c0.1,0,0.9,0,1.2,0c0.1,0,0.2,0,0.2,0.1s0,0.1-0.1,0.1c-0.2,0-0.5,0.1-0.7,0.2
			c-0.5,0.2-0.8,0.5-1.4,1.1c-0.3,0.3-2.6,2.5-2.8,2.8c0.3,0.4,3,3.1,3.5,3.6c1.1,1,1.3,1.2,1.9,1.4c0.3,0.1,0.7,0.2,0.8,0.2
			s0.2,0,0.2,0.1s-0.1,0.1-0.3,0.1h-0.7c-0.4,0-0.6,0-0.9,0c-0.7-0.1-1-0.3-1.5-0.8c-0.6-0.4-3.3-3.4-3.9-4.2h-0.1v1.3
			c0,1.2,0,2.3,0.1,2.8c0,0.4,0.1,0.6,0.5,0.7c0.2,0,0.4,0.1,0.5,0.1s0.1,0,0.1,0.1s-0.1,0.1-0.2,0.1c-0.6,0-1.3,0-1.5,0
			c-0.1,0-0.9,0-1.2,0c-0.1,0-0.2,0-0.2-0.1c0,0,0-0.1,0.1-0.1s0.3,0,0.4-0.1c0.3-0.1,0.3-0.3,0.4-0.7c0.1-0.5,0.1-1.5,0.1-2.8
			C27.9,84.4,27.9,82.1,27.9,82.1z"/>
		<path fill="#222222" d="M41.7,84.3c0,1.9,0,2.7,0.3,2.9c0.2,0.2,0.5,0.3,1.5,0.3c0.7,0,1.3,0,1.5-0.4c0.2-0.2,0.3-0.5,0.3-0.7
			c0-0.1,0-0.2,0.1-0.2s0.1,0,0.1,0.2c0,0.1-0.1,0.9-0.2,1.3c0,0.3,0,0.3-0.7,0.3c-1.9,0-2.7-0.1-3.5-0.1c-0.1,0-0.8,0-1.2,0
			c-0.1,0-0.2,0-0.2-0.1c0,0,0-0.1,0.1-0.1s0.3,0,0.4-0.1c0.3-0.1,0.3-0.3,0.4-0.7c0.1-0.5,0.1-1.5,0.1-2.8v-2.2c0-2,0-2.4,0-2.8
			s-0.1-0.6-0.6-0.7c-0.1,0-0.3,0-0.4,0c-0.1,0-0.1,0-0.1-0.1s0.1-0.1,0.2-0.1c0.6,0,1.4,0,1.4,0c0.1,0,1,0,1.4,0
			c0.1,0,0.2,0,0.2,0.1s-0.1,0.1-0.1,0.1c-0.1,0-0.3,0-0.4,0c-0.4,0.1-0.5,0.3-0.5,0.7c0,0.4,0,0.8,0,2.8v2.4H41.7z"/>
		<path fill="#222222" d="M54.8,83.8C54.9,83.8,54.9,83.7,54.8,83.8l-1.2-3.5c-0.1-0.2-0.1-0.2-0.2,0l-1.1,3.4c0,0.1,0,0.1,0,0.1
			H54.8z M53.5,78.7c0.2-0.4,0.2-0.5,0.3-0.5s0.1,0.1,0.3,0.5c0.2,0.5,2.2,5.8,3,7.7c0.4,1.1,0.8,1.3,1.1,1.4
			c0.2,0.1,0.4,0.1,0.5,0.1s0.1,0,0.1,0.1s-0.1,0.1-0.3,0.1s-1.1,0-2,0c-0.2,0-0.4,0-0.4-0.1s0-0.1,0.1-0.1s0.2-0.1,0.1-0.3
			l-1.2-3.1c0-0.1-0.1-0.1-0.1-0.1h-2.7c-0.1,0-0.1,0-0.1,0.1l-0.8,2.3c-0.1,0.3-0.2,0.6-0.2,0.8c0,0.3,0.3,0.4,0.5,0.4h0.1
			c0.1,0,0.1,0,0.1,0.1s-0.1,0.1-0.2,0.1c-0.3,0-0.9,0-1,0s-0.9,0-1.5,0c-0.1,0-0.2,0-0.2-0.1l0.1-0.1c0.1,0,0.2,0,0.3,0
			c0.6-0.1,0.9-0.6,1.1-1.2L53.5,78.7z"/>
		<path fill="#222222" d="M64,86.3c0,1,0.2,1.4,0.5,1.5c0.2,0.1,0.5,0.1,0.6,0.1s0.1,0,0.1,0.1s-0.1,0.1-0.2,0.1c-0.7,0-1.3,0-1.4,0
			c-0.1,0-0.7,0-1.2,0c-0.1,0-0.2,0-0.2-0.1c0,0,0-0.1,0.1-0.1s0.3,0,0.5-0.1c0.3-0.1,0.4-0.5,0.4-1.6v-7.3c0-0.5,0-0.6,0.1-0.6
			s0.3,0.3,0.5,0.4c0.2,0.2,2.1,2.3,4.1,4.4c1.3,1.3,2.7,2.9,3.1,3.3l-0.1-6.5c0-0.8-0.1-1.1-0.5-1.2c-0.2,0-0.5-0.1-0.6-0.1
			s-0.1,0-0.1-0.1s0.1-0.1,0.3-0.1c0.6,0,1.2,0,1.3,0c0.1,0,0.6,0,1.1,0c0.1,0,0.2,0,0.2,0.1s-0.1,0.1-0.1,0.1c-0.1,0-0.2,0-0.3,0
			c-0.4,0.1-0.5,0.4-0.5,1.1v7.5c0,0.8,0,0.9-0.1,0.9s-0.3-0.1-0.9-0.8c-0.1-0.1-2-2-3.3-3.5c-1.5-1.6-2.9-3.2-3.3-3.7L64,86.3z"/>
		<path fill="#222222" d="M79.5,83.4c0,1.4,0,2.6,0,2.8c0,0.3,0,0.8,0.1,0.9c0.2,0.2,0.7,0.5,2.2,0.5c1.2,0,2.3-0.4,3.1-1.2
			c0.7-0.7,1-1.9,1-3.1c0-1.6-0.7-2.7-1.2-3.2c-1.2-1.2-2.7-1.4-4.2-1.4c-0.3,0-0.7,0-0.8,0.1c-0.1,0.1-0.2,0.1-0.2,0.2
			c0,0.4,0,1.8,0,2.7V83.4z M78.5,82.1c0-2,0-2.4,0-2.8s-0.1-0.6-0.6-0.7c-0.1,0-0.3,0-0.4,0s-0.1,0-0.1-0.1s0.1-0.1,0.2-0.1
			c0.5,0,1.4,0,1.4,0c0.2,0,1,0,1.7,0c1.2,0,3.6-0.1,5.1,1.4c0.6,0.7,1.2,1.7,1.2,3.2c0,1.6-0.7,2.9-1.4,3.6
			c-0.5,0.5-1.7,1.5-3.9,1.5c-1.1,0-2.7-0.2-2.8-0.2c-0.1,0-0.9,0-1.2,0c-0.1,0-0.2,0-0.2-0.1c0,0,0-0.1,0.1-0.1s0.2,0,0.4-0.1
			c0.3-0.1,0.3-0.3,0.4-0.7c0.1-0.5,0.1-1.5,0.1-2.8C78.5,84.1,78.5,82.1,78.5,82.1z"/>
		<path fill="#222222" d="M9.2,70.1c0,1.2,0,2.2,0.1,2.8c0,0.4,0.1,0.7,0.5,0.7c0.2,0,0.5,0.1,0.6,0.1s0.1,0,0.1,0.1
			s-0.1,0.1-0.2,0.1c-0.7,0-1.5,0-1.6,0s-0.9,0-1.3,0c-0.1,0-0.2,0-0.2-0.1c0,0,0-0.1,0.1-0.1s0.3,0,0.4-0.1c0.3,0,0.3-0.3,0.4-0.7
			c0.1-0.5,0.1-1.6,0.1-2.8v-1.3c0-0.1,0-0.1-0.1-0.1H2.6c0,0-0.1,0-0.1,0.1v1.3c0,1.2,0,2.2,0.1,2.8c0,0.4,0.1,0.7,0.5,0.7
			c0.2,0,0.5,0.1,0.6,0.1s0.1,0,0.1,0.1s-0.1,0.1-0.2,0.1c-0.7,0-1.5,0-1.6,0s-0.9,0-1.3,0c-0.1,0-0.2,0-0.2-0.1c0,0,0-0.1,0.1-0.1
			s0.3,0,0.4-0.1c0.3,0,0.3-0.3,0.4-0.7c0.1-0.5,0.1-1.6,0.1-2.8v-2.3c0-2,0-2.4,0-2.8s-0.1-0.6-0.6-0.7c-0.1,0-0.3,0-0.4,0
			s-0.1,0-0.1-0.1s0.1-0.1,0.2-0.1c0.6,0,1.4,0,1.4,0c0.1,0,0.9,0,1.3,0c0.1,0,0.2,0,0.2,0.1s-0.1,0.1-0.1,0.1c-0.1,0-0.2,0-0.3,0
			c-0.3,0.1-0.4,0.3-0.5,0.7c0,0.4,0,0.8,0,2.8v0.3c0,0.1,0,0.1,0.1,0.1H8c0,0,0.1,0,0.1-0.1v-0.3c0-2,0-2.4,0-2.8S8,64.4,7.6,64.3
			c-0.1,0-0.3,0-0.4,0s-0.1,0-0.1-0.1s0.1-0.1,0.2-0.1c0.6,0,1.4,0,1.4,0c0.1,0,0.9,0,1.3,0c0.1,0,0.2,0,0.2,0.1s-0.1,0.1-0.1,0.1
			c-0.1,0-0.2,0-0.3,0c-0.3,0.1-0.4,0.3-0.5,0.7c0,0.4,0,0.8,0,2.8L9.2,70.1L9.2,70.1z"/>
		<path fill="#222222" d="M17.5,70.1c0,1.2,0,2.2,0.1,2.8c0,0.4,0.1,0.7,0.5,0.7c0.2,0,0.5,0.1,0.6,0.1s0.1,0,0.1,0.1
			s-0.1,0.1-0.2,0.1c-0.7,0-1.5,0-1.6,0s-0.9,0-1.3,0c-0.1,0-0.2,0-0.2-0.1c0,0,0-0.1,0.1-0.1s0.3,0,0.4-0.1c0.3,0,0.3-0.3,0.4-0.7
			c0.1-0.5,0.1-1.6,0.1-2.8v-2.3c0-2,0-2.4,0-2.8s-0.2-0.7-0.4-0.7c-0.1,0-0.3-0.1-0.4-0.1c0,0-0.1,0-0.1-0.1s0.1-0.1,0.2-0.1
			c0.4,0,1.2,0,1.3,0s0.9,0,1.3,0c0.1,0,0.2,0,0.2,0.1s-0.1,0.1-0.1,0.1c-0.1,0-0.2,0-0.3,0c-0.3,0.1-0.4,0.3-0.5,0.7
			c0,0.4,0,0.8,0,2.8v2.4H17.5z"/>
		<path fill="#222222" d="M23.6,73.7c-0.2-0.1-0.2-0.1-0.2-0.5c0-0.6,0-1.2,0.1-1.4c0-0.1,0-0.2,0.1-0.2s0.1,0,0.1,0.1s0,0.3,0,0.5
			c0.2,0.9,1,1.3,1.9,1.3c1.2,0,1.8-0.9,1.8-1.7c0-0.9-0.4-1.4-1.5-2.3L25.4,69c-1.4-1.1-1.7-1.9-1.7-2.8c0-1.4,1-2.3,2.7-2.3
			c0.5,0,0.9,0.1,1.2,0.1c0.2,0,0.3,0.1,0.4,0.1s0.1,0,0.1,0.1S28,64.7,28,65.6c0,0.2,0,0.3-0.1,0.3s-0.1-0.1-0.1-0.2
			c0-0.2-0.1-0.5-0.2-0.6s-0.4-0.7-1.6-0.7c-0.9,0-1.6,0.5-1.6,1.5c0,0.7,0.4,1.2,1.6,2.2l0.4,0.3c1.5,1.2,1.9,2,1.9,3
			c0,0.5-0.2,1.5-1.1,2.1C26.7,73.8,26,74,25.3,74C24.7,74,24.1,73.9,23.6,73.7"/>
		<path fill="#222222" d="M36.7,70.1c0,1.2,0,2.2,0.1,2.8c0,0.4,0.1,0.7,0.5,0.7c0.2,0,0.5,0.1,0.6,0.1s0.1,0,0.1,0.1
			s-0.1,0.1-0.2,0.1c-0.7,0-1.5,0-1.6,0s-0.9,0-1.3,0c-0.1,0-0.2,0-0.2-0.1c0,0,0-0.1,0.1-0.1s0.3,0,0.4-0.1c0.3,0,0.3-0.3,0.4-0.7
			c0.1-0.5,0.1-1.6,0.1-2.8v-5.4h-1.9c-0.8,0-1.1,0.1-1.3,0.4c-0.1,0.2-0.2,0.3-0.2,0.4s-0.1,0.1-0.1,0.1s-0.1,0-0.1-0.1
			s0.3-1.2,0.3-1.3c0-0.1,0.1-0.2,0.1-0.2c0.1,0,0.2,0.1,0.6,0.2c0.4,0,0.9,0.1,1,0.1h4.8c0.8,0,1.2-0.1,1.3-0.1s0.1,0.1,0.1,0.2
			c0,0.4,0,1.3,0,1.4s0,0.2-0.1,0.2s-0.1,0-0.1-0.2v-0.1C40,65.3,39.8,65,38.5,65h-1.6v5.1H36.7z"/>
		<path fill="#222222" d="M48.5,73.5c1.2,0,3.5-0.7,3.5-4.4c0-3.1-1.9-4.7-3.9-4.7c-2.1,0-3.7,1.4-3.7,4.2
			C44.4,71.6,46.2,73.5,48.5,73.5 M48.3,64c2.9,0,5,1.8,5,4.8c0,2.9-2,5.2-5.1,5.2c-3.5,0-5-2.7-5-5C43.2,66.9,44.7,64,48.3,64"/>
		<path fill="#222222" d="M59.6,69c0,0.1,0,0.1,0.1,0.2c0.2,0.1,0.8,0.2,1.3,0.2c0.3,0,0.7,0,1-0.2c0.4-0.3,0.8-1,0.8-2
			c0-1.6-0.8-2.6-2.2-2.6c-0.4,0-0.7,0-0.9,0.1c-0.1,0-0.1,0.1-0.1,0.2C59.6,64.9,59.6,69,59.6,69z M58.6,67.8c0-2,0-2.4,0-2.8
			s-0.1-0.6-0.6-0.7c-0.1,0-0.3,0-0.4,0c0,0-0.1,0-0.1-0.1s0.1-0.1,0.2-0.1c0.6,0,1.4,0,1.4,0c0.1,0,1.1,0,1.5,0
			c0.8,0,1.7,0.1,2.3,0.6c0.3,0.2,0.9,0.9,0.9,1.7c0,0.9-0.4,1.9-1.5,3c1.1,1.3,1.9,2.5,2.7,3.3c0.7,0.7,1.2,0.9,1.6,0.9
			c0.2,0,0.4,0,0.5,0s0.1,0,0.1,0.1s-0.1,0.1-0.3,0.1H66c-0.7,0-1-0.1-1.4-0.2c-0.6-0.3-1-0.9-1.7-1.9c-0.5-0.7-1.1-1.6-1.4-1.9
			c-0.1-0.1-0.1-0.1-0.2-0.1h-1.6c-0.1,0-0.1,0-0.1,0.1v0.3c0,1.2,0,2.2,0.1,2.8c0,0.4,0.1,0.7,0.5,0.7c0.2,0,0.5,0.1,0.6,0.1
			s0.1,0,0.1,0.1s-0.1,0.1-0.2,0.1c-0.7,0-1.5,0-1.6,0c0,0-0.8,0-1.2,0c-0.1,0-0.2,0-0.2-0.1c0,0,0-0.1,0.1-0.1s0.3,0,0.4-0.1
			c0.3-0.1,0.3-0.3,0.4-0.7c0.1-0.5,0.1-1.6,0.1-2.8L58.6,67.8L58.6,67.8z"/>
		<path fill="#222222" d="M72.5,70.1c0,1.2,0,2.2,0.1,2.8c0,0.4,0.1,0.7,0.5,0.7c0.2,0,0.5,0.1,0.6,0.1s0.1,0,0.1,0.1
			s-0.1,0.1-0.2,0.1c-0.7,0-1.5,0-1.6,0s-0.9,0-1.3,0c-0.1,0-0.2,0-0.2-0.1c0,0,0-0.1,0.1-0.1s0.3,0,0.4-0.1c0.3,0,0.3-0.3,0.4-0.7
			c0.1-0.5,0.1-1.6,0.1-2.8v-2.3c0-2,0-2.4,0-2.8s-0.2-0.7-0.4-0.7c-0.1,0-0.3-0.1-0.4-0.1c0,0-0.1,0-0.1-0.1s0.1-0.1,0.2-0.1
			c0.4,0,1.2,0,1.3,0c0.1,0,0.9,0,1.3,0c0.1,0,0.2,0,0.2,0.1s-0.1,0.1-0.1,0.1c-0.1,0-0.2,0-0.3,0c-0.3,0.1-0.4,0.3-0.5,0.7
			c0,0.4,0,0.8,0,2.8v2.4H72.5z"/>
		<path fill="#222222" d="M79.4,72.6c-1.2-1.1-1.5-2.6-1.5-3.8c0-0.9,0.3-2.4,1.4-3.5c0.8-0.8,1.9-1.4,3.9-1.4c0.5,0,1.2,0,1.9,0.2
			c0.5,0.1,0.9,0.2,1.3,0.2c0.1,0,0.2,0.1,0.2,0.1c0,0.1,0,0.3-0.1,0.7c0,0.4,0,1.1,0,1.3c0,0.2,0,0.3-0.1,0.3s-0.1-0.1-0.1-0.3
			c0-0.5-0.2-1-0.5-1.3c-0.4-0.4-1.4-0.7-2.6-0.7c-1.7,0-2.5,0.5-2.9,0.9c-0.9,0.9-1.2,2-1.2,3.3c0,2.4,1.9,4.7,4.6,4.7
			c1,0,1.7-0.1,2.2-0.6c0.3-0.3,0.4-0.8,0.5-1.1c0-0.1,0-0.2,0.1-0.2s0.1,0.1,0.1,0.2s-0.2,1.2-0.3,1.6c-0.1,0.2-0.1,0.3-0.3,0.4
			c-0.5,0.2-1.5,0.3-2.3,0.3C81.8,74,80.5,73.5,79.4,72.6"/>
		<path fill="#222222" d="M86.6,57.6h-7.4v-2.1h7.4V57.6z M79,57.2h-1.2v-2.4H79V57.2z M78,43v-2.1h1.5c0,0.2,0,1.9,0,2.1H78z
			 M77.7,40h1.8v0.7h-1.8V40z M67,27.2h12.9v1.1H67V27.2z M69.3,40.6h-1.8V40h1.8V40.6z M68.9,43h-1.5v-2.1h1.5V43z M69,57.2h-1.2
			v-2.4H69V57.2z M67.5,58h-8.7v-3.4h8.7V58z M58.5,57.8h-1.2v-3h1.2V57.8z M56.9,30.9h3.2v1h-3.2V30.9z M60.1,30.7h-2.9v-2.2h2.9
			V30.7z M56.5,27.2H60v1.1h-3.5V27.2z M46.1,10.7v-0.3c9.1,0.9,14.4,6.8,14.5,16.2h-0.2C60.3,17.5,55.1,11.6,46.1,10.7 M40.8,9.3
			l0.1,0.8H27.4V5.7h32.3v4.4H46.2V9.3H40.8z M45.7,14.1h-4.3l-0.3-4.5H46L45.7,14.1z M40.9,10.7c-9,0.9-14.1,6.7-14.2,16
			c0,0-0.3,0-0.2,0c0.1-9.4,5.3-15.3,14.4-16.2C41,10.5,41,10.7,40.9,10.7 M30.6,28.3h-3.5v-1.1h3.5V28.3z M27,28.5h3v2.2h-3V28.5z
			 M30.2,32H27v-1h3.2V32z M29.8,57.8h-1.2v-3h1.2V57.8z M28.3,58h-8.7v-3.4h8.7V58z M18.2,40.9h1.5V43h-1.5V40.9z M19.4,57.2H18
			v-2.4h1.3v2.4H19.4z M17.9,40h1.8v0.7h-1.8V40z M7.3,27.1h12.9v1.1H7.3V27.1z M9.5,40.6H7.7V40h1.8V40.6z M9.2,43H7.7v-2.1h1.5V43
			z M9.1,54.7v2.4H7.9v-1.9l0,0v-0.5H9.1z M7.7,57.6H0.5v-2.1h7.1v1.9l0,0L7.7,57.6L7.7,57.6z M0.6,26.9H7v1.4H0.6V26.9z M0.7,21
			h6.9v1.4H0.7V21z M1.5,19.7h5.2v1.1H1.5V19.7z M19.4,15h2c0,5.8-5,11.6-14.4,11.6v-1.8C17.1,24.8,19.3,18,19.4,15 M26.7,28.3h-6.2
			V27h6.2V28.3z M26.9,47.2h-0.2v-15h0.2V47.2z M21,28.5h0.2v18.7H21V28.5z M27.8,48.2h-7.4v-0.8h7.4V48.2z M28,54.3h-7.9v-0.7H28
			V54.3z M27.5,48.4v4.9h-6.9v-4.9l0,0l0,0H27.5L27.5,48.4L27.5,48.4z M67,54.3h-7.8v-0.7H67V54.3z M66.5,48.4v4.9h-6.9v-4.9l0,0
			l0,0H66.5L66.5,48.4L66.5,48.4z M66.8,48.2h-7.4v-0.8h7.4V48.2z M60.4,47.2h-0.2v-15h0.2V47.2z M66,47.2h-0.2V28.5H66V47.2z
			 M60.4,28.3V27h6.2v1.4L60.4,28.3z M67.7,15c0,2.7,2.3,9.8,12.5,9.8v1.8c-9.4,0-14.4-5.8-14.4-11.6C65.7,15,67.7,15,67.7,15
			 M86.3,28.3h-6.2v-1.4h6.2V28.3z M79.6,21h6.9v1.4h-6.9V21z M80.4,19.7h5.2v1h-5.2V19.7z M85.9,55.3V28.6h0.7v-1.9h-0.7v-4h0.8
			v-1.9h-0.9v-1.3h-5.7v1.3h-0.8v1.9h0.8v1.9c-7.1,0.1-12.1-4-12.2-9.9h-2.1v-4.3h0.7V8.6h-0.7V5h0.9V1.1h-0.9V0h-5.5v2H26.9V0h-5.5
			v1.1h-0.9V5h0.9v3.7h-0.7v1.9h0.7v4.3h-2.2c0,1.9-1.5,9.8-12.2,9.8v-1.9h0.8v-1.9H7v-1.3H1.3v1.3H0.4v1.9h0.8v3.9H0.4v1.9h0.8
			v26.7H0.3v2.6H8v-0.5h1.5v-2.9H8.6V43.2h0.9v-2.4h0.3v-1.2H8.6c0.1-2.8,2.2-5.1,5-5.1s5,2.3,5,5.1h-1v1.2H18v2.4h0.7v11.2h-0.9
			v2.9h1.6v0.8h9.2V58H30v-3.5h-0.3c0-4.7,0-14,0-22.2h0.7v-1.5h-0.3v-2.2h0.7V27h-1.1v-0.1c0-8.4,5-12.5,11.3-13.3l0,0l0.1,0.8h4.8
			l0.1-0.8c6.3,0.8,11.3,4.8,11.3,13.3V27h-1.1v1.6h0.7v2.2h-0.3v1.5h0.7c0,8.3,0,17.5,0,22.2H57V58h1.4v0.2h9.2v-0.8h1.5v-2.9h-0.8
			V43.2h0.8v-2.4h0.3v-1.2h-1.1l0,0v-0.2v0.2c0.1-2.8,2.3-5.1,5.1-5.1c2.8,0,4.9,2.3,5,5.1h-1.1v1.2h0.3v2.4h0.8v11.2h-1v2.9H79v0.5
			h7.9v-2.6L85.9,55.3L85.9,55.3z"/>
	</g>
</g>
</svg>
