<?xml version="1.0" encoding="utf-8"?>
<!-- Generator: Adobe Illustrator 21.0.0, SVG Export Plug-In . SVG Version: 6.00 Build 0)  -->
<svg version="1.1" id="Layer_1" xmlns="http://www.w3.org/2000/svg" xmlns:xlink="http://www.w3.org/1999/xlink" x="0px" y="0px"
	 viewBox="0 0 86.6 58.2" style="enable-background:new 0 0 86.6 58.2;" xml:space="preserve">
<style type="text/css">
	.st0{fill:#5D6F6A;}
	.st1{fill:#737477;}
	.st2{fill:#FFFFFF;}
</style>
<path class="st0" d="M86.3,57.6h-7.4v-2.1h7.4V57.6z M78.7,57.2h-1.2v-2.4h1.2V57.2z M77.7,43v-2.1h1.5c0,0.2,0,1.9,0,2.1H77.7z
	 M77.4,40h1.8v0.7h-1.8V40z M66.7,27.2h12.9v1.1H66.7V27.2z M69,40.6h-1.8V40H69V40.6z M68.7,43h-1.5v-2.1h1.5V43z M68.7,57.2h-1.2
	v-2.4h1.2V57.2z M67.2,58h-8.7v-3.4h8.7V58z M58.2,57.8H57v-3h1.2V57.8z M56.6,30.9h3.2v1h-3.2V30.9z M59.8,30.7h-2.9v-2.2h2.9V30.7
	z M56.2,27.2h3.5v1.1h-3.5V27.2z M45.9,10.7c0,0,0-0.3,0-0.3c9.1,0.9,14.4,6.8,14.5,16.2c0,0-0.2,0-0.2,0
	C60,17.5,54.9,11.6,45.9,10.7 M40.6,9.3l0.1,0.8H27.1V5.7h32.3v4.4l-13.5,0l0-0.8H40.6z M45.4,14.1h-4.3l-0.3-4.5h4.8L45.4,14.1z
	 M40.7,10.7c-9,0.9-14.1,6.7-14.2,16c0,0-0.3,0-0.2,0c0.1-9.4,5.3-15.3,14.4-16.2C40.7,10.5,40.7,10.7,40.7,10.7 M30.3,28.3h-3.5
	v-1.1h3.5V28.3z M26.8,28.5h2.9v2.2h-2.9V28.5z M29.9,32h-3.2v-1h3.2V32z M29.5,57.8h-1.2v-3h1.2V57.8z M28,58h-8.7v-3.4H28V58z
	 M18,40.9h1.5V43H18V40.9z M19.1,57.2h-1.3v-2.4h1.3V57.2z M17.6,40h1.8v0.7h-1.8V40z M7,27.1h12.9v1.1H7V27.1z M9.2,40.6H7.4V40
	h1.8V40.6z M8.9,43H7.4v-2.1h1.5V43z M8.9,54.7v2.4H7.7v-1.9h0v-0.5H8.9z M7.4,57.6H0.2v-2.1h7.1v1.9h0V57.6z M0.4,26.9h6.3v1.4H0.4
	V26.9z M0.4,21h6.9v1.4H0.4V21z M1.3,19.7h5.2v1.1H1.3V19.7z M19.1,15c0,0,2,0,2,0c0,5.8-5,11.6-14.4,11.6v-1.8
	C16.8,24.8,19,18,19.1,15 M26.5,28.3h-6.2v-1.3h6.2V28.3z M26.6,47.2h-0.2v-15h0.2V47.2z M20.7,28.5H21v18.7h-0.2V28.5z M27.5,48.2
	H20v-0.8h7.4V48.2z M27.7,54.3h-7.9v-0.7h7.9V54.3z M27.2,48.4v4.9h-6.9v-4.9h0v0L27.2,48.4L27.2,48.4L27.2,48.4z M66.7,54.3h-7.8
	v-0.7h7.8V54.3z M66.2,48.4v4.9h-6.9v-4.9h0v0L66.2,48.4L66.2,48.4L66.2,48.4z M66.5,48.2h-7.4v-0.8h7.4V48.2z M60.2,47.2h-0.2v-15
	h0.2V47.2z M65.7,47.2h-0.2V28.5h0.2V47.2z M60.1,28.3V27l6.2,0v1.4L60.1,28.3z M67.4,15c0,2.7,2.3,9.8,12.5,9.8v1.8
	c-9.4,0-14.4-5.8-14.4-11.6C65.5,15,67.4,15,67.4,15 M86.1,28.3h-6.2v-1.4h6.2V28.3z M79.3,21h6.9v1.4h-6.9V21z M80.1,19.7h5.2v1
	h-5.2V19.7z M85.6,55.3V28.6h0.7v-1.9h-0.7v-4h0.8v-1.9h-0.9v-1.3h-5.7v1.3H79v1.9h0.8c0,0,0,1.9,0,1.9c-7.1,0.1-12.1-4-12.2-9.9
	c0,0-2.1,0-2.1,0v-4.3h0.7V8.6h-0.7V5h0.9V1.1h-0.9V0H60v2H26.6l0-2h-5.5v1.1h-0.9V5h0.9v3.7h-0.7v1.9h0.7l0,4.3c0,0-2.2,0-2.2,0
	c0,1.9-1.5,9.8-12.2,9.8l0-1.9h0.8v-1.9H6.7v-1.3H1v1.3H0.1v1.9h0.8v3.9H0.1v1.9h0.8v26.7H0v2.6h7.7v-0.5h1.5v-2.9H8.3V43.2h0.9
	v-2.4h0.3v-1.2H8.3c0.1-2.8,2.2-5.1,5-5.1c2.8,0,5,2.3,5,5.1h-1v1.2h0.3v2.4h0.7v11.2h-0.9v2.9h1.6v0.8h9.2V58h1.4v-3.5h-0.3
	c0-4.7,0-14,0-22.2h0.7v-1.5h-0.3v-2.2h0.7V27h-1.1v-0.1c0-8.4,5-12.5,11.3-13.3l0,0l0.1,0.8h4.8c0,0,0.1-0.8,0.1-0.8
	C52,14.4,57,18.4,57,26.8V27H56v1.6h0.7v2.2h-0.3v1.5H57c0,8.3,0,17.5,0,22.2h-0.3V58h1.4v0.2h9.2v-0.8H69v-2.9h-0.8V43.2h0.8v-2.4
	h0.3v-1.2h-1.1h0v-0.2l0,0.2c0.1-2.8,2.3-5.1,5.1-5.1c2.8,0,4.9,2.3,5,5.1h-1.1v1.2h0.3v2.4h0.8v11.2h-1v2.9h1.5v0.5h7.9v-2.6H85.6z
	"/>
</svg>
